<svg xmlns="http://www.w3.org/2000/svg" width="30" height="30" viewBox="0 0 30 30"><g transform="translate(-3.375 -3.375)"><path d="M18.375,6.4a11.966,11.966,0,1,1-8.466,3.5,11.922,11.922,0,0,1,8.466-3.5m0-3.029a15,15,0,1,0,15,15,15,15,0,0,0-15-15Z" fill="#aaa"/><g transform="translate(12.525 9.586)"><path d="M16.523,23.836h2.953v2.953H16.523Z" transform="translate(-12.15 -9.211)" fill="#aaa"/><path d="M19.462,22.359H16.538c0-4.711,4.387-4.373,4.387-7.3A2.938,2.938,0,0,0,18,12.129a2.967,2.967,0,0,0-2.925,2.918H12.15a5.85,5.85,0,0,1,11.7.007C23.85,18.71,19.462,19.125,19.462,22.359Z" transform="translate(-12.15 -9.211)" fill="#aaa"/></g></g></svg>