<svg xmlns="http://www.w3.org/2000/svg" width="35" height="35" viewBox="3 3 35 35"><path d="M24.7,15.8a11.216,11.216,0,0,0,.1-1.41,11.216,11.216,0,0,0-.1-1.41l3.037-2.375a.726.726,0,0,0,.173-.921l-2.879-4.98a.723.723,0,0,0-.878-.317L20.566,5.829a10.515,10.515,0,0,0-2.432-1.41L17.587.6a.7.7,0,0,0-.705-.6H11.125a.7.7,0,0,0-.705.6L9.872,4.419A11.058,11.058,0,0,0,7.44,5.829L3.856,4.39a.7.7,0,0,0-.878.317L.1,9.686a.71.71,0,0,0,.173.921l3.037,2.375a11.414,11.414,0,0,0-.1,1.41,11.414,11.414,0,0,0,.1,1.41L.273,18.178A.726.726,0,0,0,.1,19.1l2.879,4.98a.723.723,0,0,0,.878.317L7.44,22.956a10.515,10.515,0,0,0,2.432,1.41l.547,3.814a.7.7,0,0,0,.705.6h5.757a.7.7,0,0,0,.705-.6l.547-3.814a11.058,11.058,0,0,0,2.432-1.41L24.15,24.4a.7.7,0,0,0,.878-.317l2.879-4.98a.726.726,0,0,0-.173-.921L24.7,15.8ZM14,19.43a5.037,5.037,0,1,1,5.037-5.037A5.043,5.043,0,0,1,14,19.43Z" transform="translate(2.119 16.084) rotate(-30)" fill="none" stroke="#aaa" stroke-linejoin="round" stroke-width="3"/></svg>