<svg xmlns="http://www.w3.org/2000/svg" width="27" height="23.516" viewBox="0 0 27 23.516">
  <g id="多角形_15" data-name="多角形 15" transform="translate(27 23.516) rotate(180)" fill="none">
    <path d="M10.9,4.532a3,3,0,0,1,5.2,0l8.319,14.49a3,3,0,0,1-2.6,4.494H5.181a3,3,0,0,1-2.6-4.494Z" stroke="none"/>
    <path d="M 13.49999618530273 8.034265518188477 L 6.908557891845703 19.51612854003906 L 20.09144020080566 19.51612854003906 L 13.49999618530273 8.034265518188477 M 13.49999904632568 3.025699615478516 C 14.51261615753174 3.025699615478516 15.52523422241211 3.52783203125 16.10175895690918 4.532098770141602 L 24.42033958435059 19.02252769470215 C 25.56847953796387 21.02251815795898 24.12469863891602 23.51612854003906 21.81857872009277 23.51612854003906 L 5.181419372558594 23.51612854003906 C 2.875299453735352 23.51612854003906 1.4315185546875 21.02251815795898 2.579658508300781 19.02252769470215 L 10.89823913574219 4.532098770141602 C 11.47476387023926 3.52783203125 12.48738193511963 3.025699615478516 13.49999904632568 3.025699615478516 Z" stroke="none" fill="#fff"/>
  </g>
</svg>
