<svg xmlns="http://www.w3.org/2000/svg" width="29.197" height="35.777" viewBox="0 0 29.197 35.777"><g transform="translate(2.121 1.5)"><path d="M12.578,27.121a1.273,1.273,0,0,0,1.27,1.27h5.078a1.273,1.273,0,0,0,1.27-1.27v-1.27H12.578ZM16.387,3a8.883,8.883,0,0,0-5.078,16.174v2.869a1.273,1.273,0,0,0,1.27,1.27H20.2a1.273,1.273,0,0,0,1.27-1.27V19.174A8.883,8.883,0,0,0,16.387,3ZM20,17.092l-1.079.762v2.92H13.848v-2.92l-1.079-.762a6.348,6.348,0,1,1,7.236,0Z" transform="translate(-3.909 5.887)"/><line y2="5.078" transform="translate(12.478)" fill="none" stroke="#000" stroke-linecap="round" stroke-width="3"/><line y2="5.078" transform="translate(24.954 5.296) rotate(45)" fill="none" stroke="#000" stroke-linecap="round" stroke-width="3"/><line y2="5.078" transform="translate(0 5.296) rotate(-45)" fill="none" stroke="#000" stroke-linecap="round" stroke-width="3"/></g></svg>