<svg xmlns="http://www.w3.org/2000/svg" width="205.627" height="41.638" viewBox="0 0 205.627 41.638"><g transform="translate(-478 -53.965)"><path d="M848.268,520.723H868.2a1.506,1.506,0,0,1,1.669,1.3v3.52a1.524,1.524,0,0,1-1.669,1.3H848.268a1.546,1.546,0,0,1-1.669-1.3v-3.52A1.527,1.527,0,0,1,848.268,520.723Z" transform="translate(-254.549 -452.417)" fill="#1a1a1a"/><path d="M848.268,482.682H868.2a1.506,1.506,0,0,1,1.669,1.3v3.52a1.524,1.524,0,0,1-1.669,1.3H848.268a1.546,1.546,0,0,1-1.669-1.3v-3.52A1.527,1.527,0,0,1,848.268,482.682Z" transform="translate(-254.549 -425.229)" fill="#1a1a1a"/><path d="M535.526,484.733v32.682a2.711,2.711,0,0,1-2.737,2.737H525.4a2.745,2.745,0,0,1-2.737-2.737V484.733A2.781,2.781,0,0,1,525.4,482h7.39A2.745,2.745,0,0,1,535.526,484.733Z" transform="translate(-23.03 -424.738)" fill="#1a1a1a"/><path d="M673.063,506.264H647.344c-1.206,0-2.154-.574-2.154-1.3v-3.52c0-.7.948-1.3,2.154-1.3h25.719c1.163,0,2.154.6,2.154,1.3v3.52C675.217,505.69,674.226,506.264,673.063,506.264Z" transform="translate(-110.606 -437.703)" fill="#1a1a1a"/><path d="M668.442,547.118H638.3c-1.414,0-2.525-.574-2.525-1.3v-3.52c0-.7,1.111-1.3,2.525-1.3h30.141c1.363,0,2.524.6,2.524,1.3v3.52C670.967,546.544,669.806,547.118,668.442,547.118Z" transform="translate(-103.879 -466.901)" fill="#1a1a1a"/><path d="M1061.507,487.849h-25.719c-1.206,0-2.154-.574-2.154-1.3v-3.52c0-.7.948-1.3,2.154-1.3h25.719c1.163,0,2.154.6,2.154,1.3v3.52C1063.661,487.275,1062.67,487.849,1061.507,487.849Z" transform="translate(-388.222 -424.542)" fill="#1a1a1a"/><path d="M1101.7,553.3l-18.186-18.186c-.853-.853-1.118-1.929-.6-2.445l2.49-2.489c.5-.5,1.592-.251,2.445.6l18.186,18.186c.823.822,1.1,1.947.6,2.445l-2.489,2.489C1103.629,554.422,1102.523,554.127,1101.7,553.3Z" transform="translate(-423.256 -458.996)" fill="#1a1a1a"/><path d="M839.422,503.939V484.006a1.642,1.642,0,0,1,1.647-1.669h4.448a1.663,1.663,0,0,1,1.647,1.669v19.932a1.685,1.685,0,0,1-1.647,1.669h-4.448A1.663,1.663,0,0,1,839.422,503.939Z" transform="translate(-249.42 -424.984)" fill="#1a1a1a"/><path d="M1062.463,491.324l-26.9,26.9c-1.262,1.262-3,1.51-3.941.565l-4.557-4.557c-.912-.911-.7-2.679.565-3.941l26.9-26.9c1.217-1.217,3.03-1.477,3.941-.565l4.557,4.557C1063.973,488.328,1063.679,490.107,1062.463,491.324Z" transform="translate(-383.133 -424.943)" fill="#1a1a1a"/><ellipse cx="4.347" cy="4.347" rx="4.347" ry="4.347" transform="translate(478 62.68)" fill="#1a1a1a"/><ellipse cx="4.193" cy="4.193" rx="4.193" ry="4.193" transform="translate(562.564 53.965)" fill="#1a1a1a"/><ellipse cx="4.193" cy="4.193" rx="4.193" ry="4.193" transform="translate(566.757 56.09)" fill="#1a1a1a"/><ellipse cx="5.928" cy="5.928" rx="5.928" ry="5.928" transform="translate(484.955 61.1)" fill="#1a1a1a"/><path d="M687.767,484.56v32.682a2.711,2.711,0,0,1-2.737,2.737h-7.391a2.745,2.745,0,0,1-2.737-2.737V484.56a2.782,2.782,0,0,1,2.737-2.737h7.391A2.745,2.745,0,0,1,687.767,484.56Z" transform="translate(-131.84 -424.615)" fill="#1a1a1a"/><path d="M919.316,484.56v32.682a2.711,2.711,0,0,1-2.737,2.737h-7.39a2.745,2.745,0,0,1-2.737-2.737V484.56a2.781,2.781,0,0,1,2.737-2.737h7.39A2.745,2.745,0,0,1,919.316,484.56Z" transform="translate(-297.327 -424.377)" fill="#1a1a1a"/></g></svg>