<svg xmlns="http://www.w3.org/2000/svg" width="136.655" height="104.524" viewBox="0 0 136.655 104.524"><g transform="translate(-1163.594 -188.794)"><g transform="translate(-27.251 -2142.182)"><g transform="translate(1219.638 2330.976)" fill="none" stroke="#242424" stroke-width="7"><ellipse cx="39.4" cy="39.4" rx="39.4" ry="39.4" stroke="none"/><ellipse cx="39.4" cy="39.4" rx="35.9" ry="35.9" fill="none"/></g><g transform="translate(1193.345 2419.176)"><path d="M7049.367,7248.773c6.585,0,6.585,13.824,13.169,13.824s6.584-13.824,13.167-13.824,6.585,13.824,13.168,13.824,6.584-13.824,13.169-13.824,6.585,13.824,13.169,13.824,6.586-13.824,13.17-13.824,6.585,13.824,13.169,13.824,6.586-13.824,13.172-13.824,6.586,13.824,13.172,13.824" transform="translate(-7049.367 -7248.773)" fill="none" stroke="#242424" stroke-linecap="round" stroke-miterlimit="10" stroke-width="5"/></g><g transform="translate(1193.251 2419.176)"><path d="M7049.367,7248.773c6.585,0,6.585,13.824,13.169,13.824s6.584-13.824,13.167-13.824,6.585,13.824,13.168,13.824,6.584-13.824,13.169-13.824,6.585,13.824,13.169,13.824,6.586-13.824,13.17-13.824,6.585,13.824,13.169,13.824,6.586-13.824,13.172-13.824,6.586,13.824,13.172,13.824" transform="translate(-7049.367 -7248.773)" fill="none" stroke="#242424" stroke-linecap="round" stroke-miterlimit="10" stroke-width="3"/></g><path d="M0,0C6.585,0,6.585,13.825,13.169,13.825S19.753,0,26.336,0,32.92,13.825,39.5,13.825,46.088,0,52.673,0s6.584,13.825,13.169,13.825S72.427,0,79.012,0,85.6,13.825,92.181,13.825,98.767,0,105.352,0s6.586,13.825,13.172,13.825" transform="translate(1206.476 2419.175)" fill="none" stroke="#242424" stroke-linecap="round" stroke-miterlimit="10" stroke-width="5"/></g><circle cx="4.236" cy="4.236" r="4.236" transform="translate(1211.745 215.162)" fill="#1a1a1a"/><circle cx="5.776" cy="5.776" r="5.776" transform="translate(1218.524 213.621)" fill="#1a1a1a"/><path d="M535.2,484.663v31.848a2.642,2.642,0,0,1-2.667,2.667h-7.2a2.675,2.675,0,0,1-2.667-2.667V484.663A2.71,2.71,0,0,1,525.328,482h7.2A2.675,2.675,0,0,1,535.2,484.663Z" transform="translate(710.162 -272.119)" fill="#1a1a1a"/></g></svg>